<svg width="13" height="15" viewBox="0 0 13 15" fill="none" xmlns="http://www.w3.org/2000/svg">
<path d="M9.5 13V14.0938C9.5 14.4766 9.19922 14.75 8.84375 14.75H1.40625C1.02344 14.75 0.75 14.4766 0.75 14.0938V4.03125C0.75 3.67578 1.02344 3.375 1.40625 3.375H3.375V11.4688C3.375 12.3164 4.05859 13 4.90625 13H9.5ZM9.5 3.59375C9.5 3.97656 9.77344 4.25 10.1562 4.25H13V11.4688C13 11.8516 12.6992 12.125 12.3438 12.125H4.90625C4.52344 12.125 4.25 11.8516 4.25 11.4688V1.40625C4.25 1.05078 4.52344 0.75 4.90625 0.75H9.5V3.59375ZM12.7812 2.74609C12.918 2.88281 13 3.04688 13 3.21094V3.375H10.375V0.75H10.5391C10.7031 0.75 10.8672 0.832031 11.0039 0.96875L12.7812 2.74609Z" fill="white"/>
</svg>
