<svg width="52" height="60" viewBox="0 0 52 60" fill="none" xmlns="http://www.w3.org/2000/svg">
<path opacity="0.3" d="M21.6668 21.4285V1.24268L1.25684 21.4285H21.6668Z" fill="#FFCC66"/>
<path d="M0 55.7143C0 58.0714 1.95005 60 4.33333 60H47.6667C50.0499 60 52 58.0714 52 55.7143V4.28571C52 1.92849 50.0499 0 47.6667 0H26V21.4286C26 23.7857 24.0499 25.7143 21.6667 25.7143H0V55.7143ZM32.6517 20.9143H37.3533C38.545 20.9143 39.52 21.8785 39.52 23.0572C39.52 24.2357 38.545 25.2 37.3533 25.2H32.6517C31.46 25.2 30.485 24.2357 30.485 23.0572C30.485 21.8785 31.46 20.9143 32.6517 20.9143ZM32.6517 32.1429H37.3533C38.545 32.1429 39.52 33.1072 39.52 34.2857C39.52 35.4643 38.545 36.4286 37.3533 36.4286H32.6517C31.46 36.4286 30.485 35.4643 30.485 34.2857C30.485 33.1072 31.46 32.1429 32.6517 32.1429ZM14.6467 32.1429H23.6817C24.8733 32.1429 25.8483 33.1072 25.8483 34.2857C25.8483 35.4643 24.8733 36.4286 23.6817 36.4286H14.6467C13.455 36.4286 12.48 35.4643 12.48 34.2857C12.48 33.1072 13.455 32.1429 14.6467 32.1429ZM14.6467 43.3714H37.3533C38.545 43.3714 39.52 44.3357 39.52 45.5143C39.52 46.6928 38.545 47.6571 37.3533 47.6571H14.6467C13.455 47.6571 12.48 46.6928 12.48 45.5143C12.48 44.3357 13.455 43.3714 14.6467 43.3714Z" fill="#FFCC66"/>
</svg>
