<svg width="60" height="55" viewBox="0 0 60 55" fill="none" xmlns="http://www.w3.org/2000/svg">
<path d="M18.446 54.047H3.22731C2.66386 54.0472 2.11018 53.8998 1.62139 53.6195C1.1326 53.3392 0.725736 52.9358 0.441291 52.4494C0.156846 51.963 0.0047395 51.4106 0.000108979 50.8472C-0.00452154 50.2837 0.138486 49.7289 0.414898 49.2379L27.2485 1.6399C27.5296 1.14221 27.9378 0.728115 28.4314 0.439975C28.925 0.151836 29.4863 0 30.0579 0C30.6294 0 31.1908 0.151836 31.6844 0.439975C32.178 0.728115 32.5862 1.14221 32.8673 1.6399L40.9088 15.8359C41.1931 16.3271 41.3428 16.8846 41.3428 17.4521C41.3428 18.0197 41.1931 18.5772 40.9088 19.0684L21.2402 52.4582C20.9544 52.9446 20.5459 53.3473 20.0555 53.6262C19.5651 53.905 19.0101 54.0501 18.446 54.047Z" fill="#FFCC66"/>
<path d="M35.7832 49.2259L44.8231 33.1002C45.105 32.6026 45.5138 32.1888 46.0079 31.9008C46.502 31.6129 47.0636 31.4612 47.6355 31.4612C48.2073 31.4612 48.769 31.6129 49.2631 31.9008C49.7571 32.1888 50.166 32.6026 50.4479 33.1002L59.5791 49.2198C59.8578 49.7112 60.0029 50.267 59.9999 50.8319C59.997 51.3967 59.846 51.951 59.5621 52.4393C59.2782 52.9277 58.8713 53.3331 58.3819 53.6152C57.8925 53.8974 57.3377 54.0463 56.7728 54.0472H38.6017C38.0366 54.0478 37.4813 53.9003 36.991 53.6194C36.5008 53.3385 36.0927 52.9339 35.8076 52.4461C35.5224 51.9583 35.3701 51.4043 35.3658 50.8393C35.3615 50.2743 35.5054 49.718 35.7832 49.2259Z" fill="#FFCC66"/>
</svg>
