<svg width="44" height="60" viewBox="0 0 44 60" fill="none" xmlns="http://www.w3.org/2000/svg">
<path d="M41.9699 31.4775C40.576 29.675 38.4725 28.437 35.6597 27.7641C39.2417 25.9369 40.8158 22.8359 40.3836 18.4603C40.2392 16.8737 39.8007 15.4986 39.0671 14.333C38.3331 13.1671 37.3426 12.2299 36.0917 11.5209C34.8419 10.8109 33.4826 10.2705 32.0169 9.89795C30.5509 9.52538 28.8677 9.25485 26.9686 9.08675V0H21.4161V8.83429C20.4546 8.83429 18.9883 8.85828 17.0173 8.9064V0H11.4641V9.08675C10.6706 9.11088 9.50488 9.12313 7.96646 9.12313L0.322266 9.08675V15.0004H4.32446C6.15146 15.0004 7.22119 15.818 7.53365 17.4524V27.8013C7.77437 27.8013 7.96646 27.8137 8.11082 27.8377H7.53365V42.3326C7.34155 43.5583 6.64452 44.1717 5.44244 44.1717H1.44049L0.322518 50.7705H7.53428C7.99109 50.7705 8.65175 50.7766 9.51751 50.7875C10.3828 50.7996 11.0315 50.8056 11.4644 50.8056V60.0004H17.0185V50.9138C18.0278 50.9384 19.4941 50.9501 21.4173 50.9501V60.0004H26.9699V50.8056C28.9415 50.7097 30.6902 50.5303 32.2159 50.265C33.7425 49.9996 35.2032 49.5856 36.5972 49.0203C37.991 48.4558 39.1567 47.7522 40.094 46.9108C41.0319 46.0702 41.8065 44.9999 42.4205 43.7016C43.0326 42.4033 43.4237 40.9009 43.5914 39.1937C43.9053 35.8532 43.3641 33.2808 41.9699 31.4775ZM17.1253 15.396C17.2937 15.396 17.7684 15.3899 18.5497 15.3778C19.3313 15.3654 19.9801 15.3536 20.4969 15.3414C21.0139 15.3296 21.711 15.3596 22.5888 15.4317C23.4662 15.5039 24.2052 15.6002 24.806 15.7202C25.4068 15.8402 26.0685 16.0386 26.789 16.3151C27.5108 16.5913 28.0873 16.928 28.5195 17.3245C28.9526 17.7211 29.3191 18.2262 29.619 18.8392C29.9199 19.4521 30.0702 20.1552 30.0702 20.9484C30.0702 21.6215 29.9622 22.2347 29.7461 22.7879C29.5304 23.3407 29.205 23.8035 28.7729 24.1761C28.3405 24.5488 27.895 24.8736 27.4382 25.1499C26.9819 25.4261 26.3984 25.6486 25.6895 25.8167C24.9807 25.985 24.3617 26.1173 23.8332 26.2133C23.3042 26.3095 22.6433 26.3758 21.8499 26.4117C21.0564 26.4475 20.4553 26.472 20.0468 26.4839C19.638 26.4958 19.0793 26.4958 18.3699 26.4839C17.6603 26.472 17.2462 26.4657 17.1257 26.4657V15.3959L17.1253 15.396ZM32.2884 39.9514C32.0595 40.5046 31.7654 40.9856 31.4051 41.3946C31.0442 41.8025 30.5692 42.1635 29.9805 42.4755C29.392 42.7885 28.8205 43.0405 28.2681 43.2328C27.7149 43.4259 27.0475 43.5933 26.267 43.738C25.4847 43.8823 24.8001 43.9839 24.2105 44.0444C23.6219 44.1046 22.919 44.1525 22.1014 44.1889C21.2844 44.2242 20.647 44.2425 20.1904 44.2425C19.7336 44.2425 19.1566 44.236 18.4594 44.2242C17.7619 44.213 17.3176 44.2069 17.1251 44.2069V32.0187C17.3172 32.0187 17.8882 32.007 18.8379 31.9825C19.7878 31.9582 20.5626 31.947 21.1636 31.947C21.7646 31.947 22.5942 31.9825 23.6523 32.0551C24.7094 32.1267 25.5989 32.2344 26.3207 32.3787C27.0416 32.5231 27.8283 32.7452 28.6823 33.046C29.5354 33.3463 30.2269 33.7129 30.756 34.1455C31.2849 34.579 31.7293 35.131 32.0898 35.8043C32.4511 36.4772 32.6313 37.2466 32.6313 38.1123C32.6312 38.786 32.5172 39.3981 32.2884 39.9514Z" fill="#FFCC66"/>
</svg>
