<svg xmlns="http://www.w3.org/2000/svg" xmlns:xlink="http://www.w3.org/1999/xlink" width="49" zoomAndPan="magnify" viewBox="0 0 36.75 30.000001" height="40" preserveAspectRatio="xMidYMid meet" version="1.0"><defs><clipPath id="6667e2661d"><path d="M 10.886719 7.148438 L 25.402344 7.148438 L 25.402344 21.664062 L 10.886719 21.664062 Z M 10.886719 7.148438 " clip-rule="nonzero"/></clipPath></defs><g clip-path="url(#6667e2661d)"><path fill="#ffffff" d="M 15.136719 7.199219 C 14.363281 7.234375 13.835938 7.355469 13.375 7.539062 C 12.898438 7.722656 12.496094 7.972656 12.09375 8.375 C 11.691406 8.78125 11.441406 9.1875 11.257812 9.664062 C 11.078125 10.125 10.957031 10.652344 10.925781 11.425781 C 10.890625 12.199219 10.882812 12.445312 10.886719 14.417969 C 10.890625 16.386719 10.898438 16.632812 10.933594 17.40625 C 10.972656 18.179688 11.09375 18.707031 11.277344 19.167969 C 11.460938 19.644531 11.710938 20.046875 12.113281 20.453125 C 12.519531 20.855469 12.921875 21.101562 13.402344 21.285156 C 13.863281 21.464844 14.390625 21.585938 15.164062 21.621094 C 15.9375 21.652344 16.183594 21.660156 18.152344 21.65625 C 20.125 21.652344 20.371094 21.644531 21.144531 21.609375 C 21.917969 21.570312 22.445312 21.445312 22.90625 21.265625 C 23.382812 21.082031 23.785156 20.832031 24.1875 20.429688 C 24.589844 20.023438 24.839844 19.621094 25.023438 19.140625 C 25.199219 18.679688 25.324219 18.152344 25.355469 17.378906 C 25.390625 16.605469 25.398438 16.359375 25.394531 14.390625 C 25.390625 12.417969 25.382812 12.171875 25.34375 11.398438 C 25.308594 10.625 25.183594 10.097656 25.003906 9.636719 C 24.816406 9.160156 24.570312 8.757812 24.164062 8.355469 C 23.761719 7.953125 23.355469 7.703125 22.878906 7.519531 C 22.417969 7.339844 21.890625 7.21875 21.117188 7.1875 C 20.34375 7.152344 20.097656 7.144531 18.125 7.148438 C 16.15625 7.152344 15.910156 7.160156 15.136719 7.199219 M 15.21875 20.3125 C 14.511719 20.28125 14.128906 20.164062 13.871094 20.066406 C 13.535156 19.933594 13.292969 19.777344 13.039062 19.523438 C 12.78125 19.269531 12.625 19.03125 12.492188 18.691406 C 12.394531 18.4375 12.273438 18.050781 12.242188 17.34375 C 12.203125 16.582031 12.195312 16.351562 12.191406 14.414062 C 12.1875 12.476562 12.195312 12.246094 12.230469 11.484375 C 12.257812 10.777344 12.378906 10.390625 12.476562 10.136719 C 12.609375 9.796875 12.765625 9.554688 13.015625 9.300781 C 13.269531 9.046875 13.511719 8.886719 13.851562 8.753906 C 14.105469 8.65625 14.488281 8.535156 15.195312 8.503906 C 15.960938 8.46875 16.191406 8.460938 18.128906 8.457031 C 20.066406 8.453125 20.296875 8.457031 21.058594 8.492188 C 21.765625 8.523438 22.152344 8.640625 22.40625 8.738281 C 22.746094 8.871094 22.988281 9.027344 23.242188 9.28125 C 23.496094 9.535156 23.65625 9.773438 23.789062 10.113281 C 23.886719 10.367188 24.007812 10.753906 24.039062 11.460938 C 24.074219 12.222656 24.082031 12.453125 24.085938 14.390625 C 24.089844 16.328125 24.082031 16.558594 24.050781 17.320312 C 24.019531 18.027344 23.902344 18.414062 23.804688 18.667969 C 23.671875 19.007812 23.515625 19.25 23.261719 19.503906 C 23.007812 19.757812 22.769531 19.914062 22.429688 20.046875 C 22.171875 20.148438 21.789062 20.265625 21.082031 20.300781 C 20.316406 20.335938 20.089844 20.34375 18.152344 20.347656 C 16.214844 20.351562 15.984375 20.34375 15.21875 20.3125 M 21.136719 10.523438 C 21.136719 11.003906 21.527344 11.394531 22.007812 11.394531 C 22.488281 11.390625 22.875 11 22.875 10.519531 C 22.875 10.039062 22.484375 9.652344 22.003906 9.652344 C 21.523438 9.652344 21.132812 10.042969 21.132812 10.523438 M 14.414062 14.410156 C 14.417969 16.46875 16.089844 18.132812 18.148438 18.128906 C 20.203125 18.125 21.871094 16.453125 21.863281 14.394531 C 21.859375 12.339844 20.191406 10.671875 18.132812 10.675781 C 16.074219 10.679688 14.410156 12.351562 14.414062 14.410156 M 15.722656 14.40625 C 15.71875 13.070312 16.800781 11.988281 18.136719 11.984375 C 19.46875 11.980469 20.554688 13.0625 20.558594 14.398438 C 20.5625 15.734375 19.480469 16.820312 18.144531 16.820312 C 16.808594 16.824219 15.722656 15.742188 15.722656 14.40625 " fill-opacity="1" fill-rule="nonzero"/></g></svg>