<svg xmlns="http://www.w3.org/2000/svg" xmlns:xlink="http://www.w3.org/1999/xlink" width="49" zoomAndPan="magnify" viewBox="0 0 36.75 30.000001" height="40" preserveAspectRatio="xMidYMid meet" version="1.0"><defs><clipPath id="50afae8d2c"><path d="M 10.886719 7.148438 L 25.402344 7.148438 L 25.402344 21.664062 L 10.886719 21.664062 Z M 10.886719 7.148438 " clip-rule="nonzero"/></clipPath></defs><g clip-path="url(#50afae8d2c)"><path fill="#ffffff" d="M 23.285156 9.261719 C 21.921875 7.902344 20.105469 7.15625 18.171875 7.15625 C 14.191406 7.15625 10.949219 10.378906 10.945312 14.339844 C 10.945312 15.609375 11.277344 16.84375 11.910156 17.933594 L 10.886719 21.660156 L 14.714844 20.660156 C 15.773438 21.234375 16.960938 21.535156 18.171875 21.535156 C 22.15625 21.535156 25.398438 18.308594 25.398438 14.347656 C 25.398438 12.425781 24.648438 10.621094 23.285156 9.261719 Z M 18.171875 20.320312 C 17.09375 20.320312 16.035156 20.03125 15.113281 19.488281 L 14.894531 19.359375 L 12.621094 19.953125 L 13.226562 17.746094 L 13.085938 17.519531 C 12.484375 16.570312 12.164062 15.46875 12.167969 14.339844 C 12.167969 11.046875 14.863281 8.367188 18.175781 8.367188 C 19.78125 8.367188 21.289062 8.992188 22.421875 10.121094 C 23.554688 11.25 24.179688 12.75 24.179688 14.347656 C 24.179688 17.640625 21.484375 20.320312 18.171875 20.320312 Z M 21.46875 15.847656 C 21.289062 15.757812 20.398438 15.324219 20.234375 15.261719 C 20.066406 15.203125 19.949219 15.171875 19.828125 15.351562 C 19.707031 15.53125 19.363281 15.9375 19.257812 16.058594 C 19.152344 16.175781 19.046875 16.191406 18.863281 16.101562 C 18.683594 16.011719 18.101562 15.820312 17.414062 15.210938 C 16.875 14.734375 16.511719 14.144531 16.40625 13.964844 C 16.300781 13.785156 16.398438 13.6875 16.488281 13.597656 C 16.566406 13.519531 16.667969 13.390625 16.757812 13.285156 C 16.847656 13.179688 16.878906 13.105469 16.9375 12.984375 C 17 12.863281 16.96875 12.761719 16.921875 12.667969 C 16.878906 12.582031 16.515625 11.695312 16.367188 11.335938 C 16.21875 10.988281 16.070312 11.035156 15.960938 11.027344 C 15.855469 11.023438 15.734375 11.023438 15.613281 11.023438 C 15.492188 11.023438 15.296875 11.066406 15.132812 11.246094 C 14.96875 11.425781 14.5 11.859375 14.5 12.746094 C 14.5 13.628906 15.148438 14.480469 15.238281 14.601562 C 15.328125 14.722656 16.511719 16.535156 18.324219 17.316406 C 18.753906 17.5 19.089844 17.609375 19.351562 17.691406 C 19.785156 17.832031 20.179688 17.8125 20.492188 17.765625 C 20.835938 17.710938 21.558594 17.328125 21.710938 16.910156 C 21.859375 16.492188 21.859375 16.132812 21.816406 16.054688 C 21.769531 15.980469 21.648438 15.9375 21.46875 15.847656 Z M 21.46875 15.847656 " fill-opacity="1" fill-rule="evenodd"/></g></svg>