<svg xmlns="http://www.w3.org/2000/svg" xmlns:xlink="http://www.w3.org/1999/xlink" width="49" zoomAndPan="magnify" viewBox="0 0 36.75 30.000001" height="40" preserveAspectRatio="xMidYMid meet" version="1.0"><defs><clipPath id="4773229c30"><path d="M 9.453125 8.496094 L 26.871094 8.496094 L 26.871094 20.835938 L 9.453125 20.835938 Z M 9.453125 8.496094 " clip-rule="nonzero"/></clipPath><clipPath id="4d647b24f8"><path d="M 9.453125 8.496094 L 26.871094 8.496094 L 26.871094 20.835938 L 9.453125 20.835938 Z M 9.453125 8.496094 " clip-rule="nonzero"/></clipPath></defs><g clip-path="url(#4773229c30)"><path fill="#ffffff" d="M 12.722656 8.496094 L 23.78125 8.496094 C 24.679688 8.496094 25.496094 8.863281 26.089844 9.457031 C 26.679688 10.046875 27.046875 10.867188 27.046875 11.765625 L 27.046875 17.921875 C 27.046875 18.820312 26.679688 19.636719 26.089844 20.226562 C 25.496094 20.820312 24.679688 21.1875 23.78125 21.1875 L 12.722656 21.1875 C 11.824219 21.1875 11.007812 20.820312 10.417969 20.226562 C 9.824219 19.636719 9.457031 18.820312 9.457031 17.921875 L 9.457031 11.765625 C 9.457031 10.867188 9.824219 10.046875 10.417969 9.457031 C 11.007812 8.863281 11.824219 8.496094 12.722656 8.496094 Z M 23.78125 8.976562 L 12.722656 8.976562 C 11.957031 8.976562 11.261719 9.292969 10.757812 9.796875 C 10.25 10.300781 9.9375 11 9.9375 11.765625 L 9.9375 17.921875 C 9.9375 18.6875 10.25 19.382812 10.757812 19.886719 C 11.261719 20.394531 11.957031 20.707031 12.722656 20.707031 L 23.78125 20.707031 C 24.546875 20.707031 25.242188 20.394531 25.75 19.886719 C 26.253906 19.382812 26.566406 18.6875 26.566406 17.921875 L 26.566406 11.765625 C 26.566406 11 26.253906 10.300781 25.75 9.796875 C 25.242188 9.292969 24.546875 8.976562 23.78125 8.976562 Z M 23.78125 8.976562 " fill-opacity="1" fill-rule="nonzero"/></g><path fill="#ffffff" d="M 21.089844 15.085938 L 16.652344 17.695312 C 16.539062 17.765625 16.394531 17.726562 16.324219 17.613281 C 16.304688 17.574219 16.292969 17.53125 16.292969 17.492188 L 16.292969 12.28125 C 16.292969 12.148438 16.398438 12.039062 16.53125 12.039062 C 16.585938 12.039062 16.632812 12.054688 16.671875 12.085938 L 21.089844 14.671875 C 21.203125 14.738281 21.242188 14.882812 21.175781 14.996094 C 21.152344 15.035156 21.125 15.066406 21.089844 15.085938 Z M 16.773438 17.070312 L 20.496094 14.878906 L 16.773438 12.699219 Z M 16.773438 17.070312 " fill-opacity="1" fill-rule="nonzero"/><g clip-path="url(#4d647b24f8)"><path fill="#ffffff" d="M 12.722656 8.496094 L 23.78125 8.496094 C 24.679688 8.496094 25.496094 8.863281 26.089844 9.457031 C 26.679688 10.046875 27.046875 10.867188 27.046875 11.765625 L 27.046875 17.921875 C 27.046875 18.820312 26.679688 19.636719 26.089844 20.226562 C 25.496094 20.820312 24.679688 21.1875 23.78125 21.1875 L 12.722656 21.1875 C 11.824219 21.1875 11.007812 20.820312 10.417969 20.226562 C 9.824219 19.636719 9.457031 18.820312 9.457031 17.921875 L 9.457031 11.765625 C 9.457031 10.867188 9.824219 10.046875 10.417969 9.457031 C 11.007812 8.863281 11.824219 8.496094 12.722656 8.496094 Z M 23.78125 8.976562 L 12.722656 8.976562 C 11.957031 8.976562 11.261719 9.292969 10.757812 9.796875 C 10.25 10.300781 9.9375 11 9.9375 11.765625 L 9.9375 17.921875 C 9.9375 18.6875 10.25 19.382812 10.757812 19.886719 C 11.261719 20.394531 11.957031 20.707031 12.722656 20.707031 L 23.78125 20.707031 C 24.546875 20.707031 25.242188 20.394531 25.75 19.886719 C 26.253906 19.382812 26.566406 18.6875 26.566406 17.921875 L 26.566406 11.765625 C 26.566406 11 26.253906 10.300781 25.75 9.796875 C 25.242188 9.292969 24.546875 8.976562 23.78125 8.976562 Z M 23.78125 8.976562 " fill-opacity="1" fill-rule="nonzero"/></g><path fill="#ffffff" d="M 21.089844 15.085938 L 16.652344 17.695312 C 16.539062 17.765625 16.394531 17.726562 16.324219 17.613281 C 16.304688 17.574219 16.292969 17.53125 16.292969 17.492188 L 16.292969 12.28125 C 16.292969 12.148438 16.398438 12.039062 16.53125 12.039062 C 16.585938 12.039062 16.632812 12.054688 16.671875 12.085938 L 21.089844 14.671875 C 21.203125 14.738281 21.242188 14.882812 21.175781 14.996094 C 21.152344 15.035156 21.125 15.066406 21.089844 15.085938 Z M 16.773438 17.070312 L 20.496094 14.878906 L 16.773438 12.699219 Z M 16.773438 17.070312 " fill-opacity="1" fill-rule="nonzero"/></svg>