<svg width="151" height="30" viewBox="0 0 151 30" fill="none" xmlns="http://www.w3.org/2000/svg">
<g clip-path="url(#clip0_180_281)">
<path fill-rule="evenodd" clip-rule="evenodd" d="M19.1035 8.76398C17.8742 7.93988 16.4289 7.5 14.9505 7.5V0C17.9074 0 20.7979 0.879735 23.2565 2.52796C25.7152 4.17617 27.6314 6.51886 28.763 9.25973C29.8945 12.0006 30.1906 15.0167 29.6137 17.9263C29.0368 20.8361 27.613 23.5088 25.5221 25.6066C23.4312 27.7044 20.7673 29.133 17.8672 29.7118C14.9671 30.2906 11.961 29.9935 9.22917 28.8582C6.49734 27.7229 4.16239 25.8003 2.51961 23.3335C0.876832 20.8668 0 17.9667 0 15H7.47525C7.47525 16.4834 7.91367 17.9334 8.73505 19.1668C9.55643 20.4002 10.7239 21.3614 12.0899 21.9291C13.4557 22.4968 14.9588 22.6453 16.4088 22.3559C17.8589 22.0665 19.1908 21.3522 20.2363 20.3033C21.2817 19.2544 21.9937 17.918 22.2821 16.4632C22.5705 15.0083 22.4225 13.5003 21.8567 12.1299C21.2909 10.7594 20.3328 9.58807 19.1035 8.76398Z" fill="white"/>
<path fill-rule="evenodd" clip-rule="evenodd" d="M7.47524 3.9637e-06C7.47524 0.984918 7.2819 1.96019 6.90623 2.87013C6.53056 3.78007 5.97994 4.60686 5.2858 5.30331C4.59166 5.99975 3.7676 6.55219 2.86065 6.9291C1.95371 7.30601 0.98166 7.5 3.26751e-07 7.5L0 15C1.96332 15 3.90743 14.612 5.72131 13.8582C7.53519 13.1044 9.18334 11.9995 10.5716 10.6066C11.9599 9.21375 13.0611 7.56015 13.8125 5.74026C14.5638 3.92037 14.9505 1.96983 14.9505 0L7.47524 3.9637e-06Z" fill="white"/>
<path d="M93.9034 10.8394H90.2764V22.3986H93.9034V10.8394Z" fill="white"/>
<path d="M90.6805 8.67495C91.0595 9.0555 91.5334 9.24577 92.1022 9.24577C92.6711 9.24577 93.1376 9.0555 93.5009 8.67495C93.8649 8.27857 94.0466 7.80285 94.0466 7.24789C94.0466 6.67708 93.8649 6.20137 93.5009 5.82083C93.1376 5.44027 92.6711 5.25 92.1022 5.25C91.5334 5.25 91.0595 5.44027 90.6805 5.82083C90.3164 6.20137 90.1348 6.67708 90.1348 7.24789C90.1348 7.80285 90.3164 8.27857 90.6805 8.67495Z" fill="white"/>
<path d="M38.2402 22.3986V5.60675H41.9621V19.1164H49.3821V22.3986H38.2402Z" fill="white"/>
<path fill-rule="evenodd" clip-rule="evenodd" d="M56.085 22.6602C54.8998 22.6602 53.8251 22.3986 52.861 21.8753C51.9128 21.3362 51.1621 20.6068 50.609 19.6871C50.0559 18.7675 49.7793 17.7368 49.7793 16.5952C49.7793 15.4535 50.0559 14.4308 50.609 13.527C51.1621 12.6232 51.9128 11.9096 52.861 11.3864C53.8093 10.8472 54.884 10.5777 56.085 10.5777C57.2862 10.5777 58.3608 10.8394 59.309 11.3626C60.2573 11.8858 61.008 12.6073 61.5611 13.527C62.1143 14.4308 62.3909 15.4535 62.3909 16.5952C62.3909 17.7368 62.1143 18.7675 61.5611 19.6871C61.008 20.6068 60.2573 21.3362 59.309 21.8753C58.3608 22.3986 57.2862 22.6602 56.085 22.6602ZM56.085 19.3542C56.6066 19.3542 57.0649 19.2432 57.46 19.0212C57.8551 18.7834 58.1554 18.4583 58.3608 18.046C58.5821 17.6179 58.6927 17.1343 58.6927 16.5952C58.6927 16.0561 58.5821 15.5883 58.3608 15.1919C58.1395 14.7796 57.8314 14.4625 57.4363 14.2405C57.057 14.0026 56.6066 13.8838 56.085 13.8838C55.5793 13.8838 55.129 14.0026 54.7338 14.2405C54.3387 14.4625 54.0305 14.7796 53.8093 15.1919C53.588 15.6042 53.4774 16.0798 53.4774 16.6189C53.4774 17.1422 53.588 17.6179 53.8093 18.046C54.0305 18.4583 54.3387 18.7834 54.7338 19.0212C55.129 19.2432 55.5793 19.3542 56.085 19.3542Z" fill="white"/>
<path fill-rule="evenodd" clip-rule="evenodd" d="M65.2633 26.9177C66.2273 27.3616 67.3415 27.5836 68.6059 27.5836C69.8386 27.5836 70.937 27.3378 71.901 26.8463C72.8651 26.3547 73.6236 25.673 74.1767 24.8009C74.7298 23.9288 75.0068 22.8981 75.0068 21.7089V10.8394H71.4505V11.616C71.186 11.3927 70.8857 11.2052 70.5498 11.0535C69.9333 10.7522 69.2301 10.6015 68.4399 10.6015C67.3811 10.6015 66.4407 10.8552 65.6189 11.3626C64.797 11.8542 64.1491 12.536 63.675 13.4081C63.2008 14.2644 62.9639 15.2316 62.9639 16.3098C62.9639 17.3722 63.2008 18.3394 63.675 19.2115C64.1491 20.0836 64.797 20.7734 65.6189 21.2808C66.4407 21.7881 67.3811 22.0419 68.4399 22.0419C69.2143 22.0419 69.9176 21.8913 70.5498 21.59C70.8559 21.444 71.1325 21.2721 71.3794 21.074V21.804C71.3794 22.6127 71.1187 23.239 70.5971 23.683C70.0914 24.127 69.3882 24.3489 68.4873 24.3489C67.7604 24.3489 67.1361 24.2221 66.6146 23.9684C66.1089 23.7147 65.6505 23.3421 65.2396 22.8505L63.0113 25.0863C63.5644 25.8791 64.3151 26.4896 65.2633 26.9177ZM70.4312 18.4742C70.0677 18.6962 69.6331 18.8072 69.1274 18.8072C68.6217 18.8072 68.1791 18.6962 67.7998 18.4742C67.4363 18.2522 67.1519 17.9509 66.9465 17.5704C66.741 17.174 66.6382 16.7538 66.6382 16.3098C66.6382 15.8341 66.741 15.406 66.9465 15.0255C67.1519 14.6449 67.4442 14.3436 67.8235 14.1216C68.2028 13.8996 68.6374 13.7886 69.1274 13.7886C69.6331 13.7886 70.0677 13.8996 70.4312 14.1216C70.8105 14.3436 71.0949 14.6449 71.2846 15.0255C71.4901 15.406 71.5928 15.8341 71.5928 16.3098C71.5928 16.7855 71.4901 17.2136 71.2846 17.5941C71.0949 17.9589 70.8105 18.2522 70.4312 18.4742Z" fill="white"/>
<path fill-rule="evenodd" clip-rule="evenodd" d="M82.6391 22.6602C81.4536 22.6602 80.3786 22.3986 79.4151 21.8753C78.4664 21.3362 77.7159 20.6068 77.1628 19.6871C76.6096 18.7675 76.333 17.7368 76.333 16.5952C76.333 15.4535 76.6096 14.4308 77.1628 13.527C77.7159 12.6232 78.4664 11.9096 79.4151 11.3864C80.3629 10.8472 81.4379 10.5777 82.6391 10.5777C83.8397 10.5777 84.9146 10.8394 85.8625 11.3626C86.8111 11.8858 87.5616 12.6073 88.1147 13.527C88.6679 14.4308 88.9445 15.4535 88.9445 16.5952C88.9445 17.7368 88.6679 18.7675 88.1147 19.6871C87.5616 20.6068 86.8111 21.3362 85.8625 21.8753C84.9146 22.3986 83.8397 22.6602 82.6391 22.6602ZM82.6391 19.3542C83.1602 19.3542 83.6184 19.2432 84.0138 19.0212C84.4085 18.7834 84.709 18.4583 84.9146 18.046C85.1359 17.6179 85.2465 17.1343 85.2465 16.5952C85.2465 16.0561 85.1359 15.5883 84.9146 15.1919C84.6933 14.7796 84.3853 14.4625 83.9899 14.2405C83.6109 14.0026 83.1602 13.8838 82.6391 13.8838C82.1331 13.8838 81.6823 14.0026 81.2876 14.2405C80.8922 14.4625 80.5842 14.7796 80.3629 15.1919C80.1416 15.6042 80.031 16.0798 80.031 16.6189C80.031 17.1422 80.1416 17.6179 80.3629 18.046C80.5842 18.4583 80.8922 18.7834 81.2876 19.0212C81.6823 19.2432 82.1331 19.3542 82.6391 19.3542Z" fill="white"/>
<path fill-rule="evenodd" clip-rule="evenodd" d="M102.621 22.6365C101.847 22.6365 101.135 22.4859 100.487 22.1846C100.146 22.026 99.8384 21.8367 99.5633 21.6167V27.2745H95.9834V10.8394H99.6104V11.6372C99.8735 11.4213 100.166 11.2346 100.487 11.0772C101.135 10.7601 101.847 10.6015 102.621 10.6015C103.711 10.6015 104.676 10.8632 105.513 11.3865C106.367 11.9097 107.03 12.6232 107.504 13.527C107.995 14.4309 108.239 15.4615 108.239 16.619C108.239 17.7765 107.995 18.8072 107.504 19.711C107.03 20.6148 106.367 21.3283 105.513 21.8516C104.676 22.3749 103.711 22.6365 102.621 22.6365ZM101.958 19.3542C102.479 19.3542 102.929 19.2353 103.308 18.9975C103.704 18.7596 104.012 18.4345 104.233 18.0223C104.454 17.61 104.565 17.1423 104.565 16.619C104.565 16.0799 104.454 15.6042 104.233 15.192C104.012 14.7797 103.704 14.4626 103.308 14.2406C102.929 14.0027 102.487 13.8838 101.981 13.8838C101.475 13.8838 101.025 14.0027 100.63 14.2406C100.25 14.4626 99.9505 14.7797 99.7292 15.192C99.508 15.6042 99.3973 16.0799 99.3973 16.619C99.3973 17.1423 99.4998 17.61 99.7053 18.0223C99.9266 18.4345 100.235 18.7596 100.63 18.9975C101.025 19.2353 101.467 19.3542 101.958 19.3542Z" fill="white"/>
<path d="M111.789 22.4223C112.453 22.5968 113.124 22.6839 113.804 22.6839C115.242 22.6839 116.38 22.351 117.218 21.685C118.07 21.0191 118.497 20.1232 118.497 18.9974C118.497 18.268 118.363 17.6813 118.094 17.2374C117.826 16.7775 117.478 16.4128 117.052 16.1433C116.625 15.8737 116.174 15.6596 115.7 15.501C115.226 15.3425 114.775 15.2077 114.349 15.0967C113.922 14.9857 113.575 14.8589 113.306 14.7162C113.037 14.5734 112.903 14.3832 112.903 14.1453C112.903 13.9233 113.006 13.7568 113.211 13.6458C113.416 13.519 113.724 13.4556 114.135 13.4556C114.562 13.4556 114.997 13.5428 115.439 13.7172C115.897 13.8916 116.309 14.193 116.672 14.6211L118.734 12.528C118.213 11.862 117.534 11.3625 116.696 11.0296C115.874 10.6808 114.973 10.5063 113.993 10.5063C113.061 10.5063 112.247 10.6649 111.552 10.982C110.856 11.2992 110.319 11.7352 109.94 12.2901C109.561 12.8292 109.371 13.4715 109.371 14.2167C109.371 14.9144 109.505 15.4932 109.774 15.953C110.042 16.3969 110.39 16.7458 110.816 16.9995C111.243 17.2532 111.694 17.4514 112.168 17.5941C112.642 17.7368 113.093 17.8716 113.52 17.9985C113.946 18.1095 114.294 18.2442 114.562 18.4028C114.847 18.5455 114.989 18.7596 114.989 19.0449C114.989 19.2669 114.87 19.4413 114.633 19.5682C114.412 19.695 114.088 19.7585 113.662 19.7585C113.045 19.7585 112.476 19.6475 111.955 19.4255C111.433 19.1877 110.982 18.8626 110.603 18.4503L108.541 20.5434C108.936 20.9715 109.41 21.3521 109.964 21.685C110.532 22.0021 111.141 22.2479 111.789 22.4223Z" fill="white"/>
<path d="M125.112 22.6602C124.053 22.6602 123.113 22.4461 122.291 22.018C121.485 21.574 120.853 20.9715 120.395 20.2104C119.936 19.4335 119.707 18.5455 119.707 17.5465V10.8394H123.334V17.499C123.334 17.8954 123.397 18.2363 123.524 18.5217C123.666 18.8071 123.871 19.0291 124.14 19.1877C124.409 19.3462 124.733 19.4255 125.112 19.4255C125.649 19.4255 126.076 19.259 126.392 18.926C126.708 18.5772 126.866 18.1015 126.866 17.499V10.8394H130.493V17.5228C130.493 18.5376 130.264 19.4335 129.805 20.2104C129.347 20.9715 128.715 21.574 127.909 22.018C127.103 22.4461 126.171 22.6602 125.112 22.6602Z" fill="white"/>
<path d="M135.923 10.8394H132.296V22.3986H135.923V15.6438C135.923 15.2475 136.002 14.9145 136.16 14.6449C136.334 14.3754 136.564 14.1692 136.848 14.0265C137.132 13.8679 137.456 13.7886 137.819 13.7886C138.341 13.7886 138.775 13.9551 139.123 14.2881C139.487 14.6052 139.669 15.0572 139.669 15.6438V22.3986H143.296V15.6438C143.296 15.2475 143.375 14.9145 143.533 14.6449C143.707 14.3754 143.936 14.1692 144.22 14.0265C144.504 13.8679 144.829 13.7886 145.192 13.7886C145.714 13.7886 146.148 13.9551 146.496 14.2881C146.859 14.6052 147.041 15.0572 147.041 15.6438V22.3986H150.669V15.2395C150.669 14.2723 150.463 13.4478 150.052 12.7659C149.656 12.0682 149.111 11.5371 148.416 11.1724C147.737 10.7918 146.954 10.6015 146.069 10.6015C145.168 10.6015 144.354 10.7997 143.628 11.1962C143.155 11.4487 142.743 11.7747 142.389 12.174C142.059 11.7563 141.659 11.4145 141.185 11.1486C140.554 10.7839 139.835 10.6015 139.029 10.6015C138.175 10.6015 137.409 10.7839 136.729 11.1486C136.433 11.3003 136.165 11.482 135.923 11.6937V10.8394Z" fill="white"/>
</g>
<defs>
<clipPath id="clip0_180_281">
<rect width="151" height="30" fill="white"/>
</clipPath>
</defs>
</svg>
