<svg width="78" height="30" viewBox="0 0 78 30" fill="none" xmlns="http://www.w3.org/2000/svg">
<g clip-path="url(#clip0_180_294)">
<path d="M35.7578 26.4286H37.7891V18.6928H35.7578V26.4286ZM35.7578 17.4865H37.7891V15.6468H35.7578V17.4865Z" fill="white"/>
<path d="M39.0986 28.9619H41.1299V25.554H41.1598C41.5929 26.2175 42.2949 26.6548 43.3703 26.6548C45.3418 26.6548 46.686 25.0715 46.686 22.5683C46.686 20.1555 45.3866 18.4818 43.3554 18.4818C42.3099 18.4818 41.5929 18.9794 41.1 19.6579H41.0552V18.6929H39.0986V28.9619ZM42.9372 24.9508C41.7274 24.9508 41.0851 24.031 41.0851 22.6286C41.0851 21.2413 41.5929 20.1405 42.8625 20.1405C44.1171 20.1405 44.6249 21.1659 44.6249 22.6286C44.6249 24.0913 43.9678 24.9508 42.9372 24.9508Z" fill="white"/>
<path d="M50.738 26.6548C52.6497 26.6548 53.9641 25.7198 53.9641 24.1667C53.9641 22.3571 52.5452 21.9953 51.2607 21.7239C50.1704 21.4977 49.1547 21.4373 49.1547 20.7738C49.1547 20.2159 49.6775 19.9143 50.4691 19.9143C51.3354 19.9143 51.8581 20.2159 51.9477 21.0453H53.7849C53.6355 19.4921 52.5153 18.4818 50.499 18.4818C48.7515 18.4818 47.3774 19.281 47.3774 20.9547C47.3774 22.6437 48.7216 23.0207 50.0957 23.2921C51.1412 23.5032 52.112 23.5786 52.112 24.3175C52.112 24.8604 51.6042 25.2072 50.708 25.2072C49.797 25.2072 49.1697 24.8151 49.0353 23.9254H47.1533C47.2728 25.5691 48.5125 26.6548 50.738 26.6548Z" fill="white"/>
<path d="M61.6758 26.4286V18.6929H59.6446V23.1563C59.6446 24.1817 59.0621 24.9056 58.1062 24.9056C57.2399 24.9056 56.8367 24.4079 56.8367 23.5031V18.6929H54.8203V23.85C54.8203 25.5389 55.7762 26.6397 57.4789 26.6397C58.5543 26.6397 59.1517 26.2325 59.6745 25.5238H59.7193V26.4286H61.6758Z" fill="white"/>
<path d="M62.9902 26.4286H65.0216V21.9349C65.0216 20.9095 65.5742 20.2461 66.3956 20.2461C67.1424 20.2461 67.5756 20.6984 67.5756 21.573V26.4286H69.6069V21.9349C69.6069 20.9095 70.1296 20.2461 70.9809 20.2461C71.7277 20.2461 72.1609 20.6984 72.1609 21.573V26.4286H74.1921V21.2262C74.1921 19.5373 73.281 18.4818 71.668 18.4818C70.6972 18.4818 69.8906 18.9945 69.3679 19.8389H69.338C68.9646 19.0246 68.1879 18.4818 67.2171 18.4818C66.1567 18.4818 65.4099 19.0246 64.9916 19.7334H64.9468V18.6929H62.9902V26.4286Z" fill="white"/>
<path d="M35.7881 13.179H37.8194V2.39722H35.7881V13.179Z" fill="white"/>
<path d="M42.786 13.4052C45.1609 13.4052 46.7888 11.6258 46.7888 9.3187C46.7888 7.01155 45.1609 5.23218 42.786 5.23218C40.4112 5.23218 38.7832 7.01155 38.7832 9.3187C38.7832 11.6258 40.4112 13.4052 42.786 13.4052ZM42.786 11.837C41.5314 11.837 40.8444 10.8266 40.8444 9.3187C40.8444 7.81075 41.5314 6.78536 42.786 6.78536C44.0257 6.78536 44.7277 7.81075 44.7277 9.3187C44.7277 10.8266 44.0257 11.837 42.786 11.837Z" fill="white"/>
<path d="M51.1083 15.818C52.2434 15.818 53.2292 15.5465 53.8714 14.9433C54.439 14.4155 54.7825 13.6766 54.7825 12.5909V5.44329H52.8259V6.25758H52.796C52.333 5.60916 51.631 5.23218 50.6751 5.23218C48.7335 5.23218 47.3594 6.70996 47.3594 9.01712C47.3594 11.3544 49.0322 12.7115 50.7349 12.7115C51.7058 12.7115 52.2882 12.3195 52.7363 11.8068H52.7811V12.6512C52.7811 13.7068 52.2285 14.2647 51.0784 14.2647C50.1374 14.2647 49.7044 13.8878 49.54 13.4052H47.5237C47.7328 14.9132 49.0173 15.818 51.1083 15.818ZM51.0784 11.0679C50.0329 11.0679 49.3458 10.2989 49.3458 8.98697C49.3458 7.69015 50.0329 6.87583 51.0635 6.87583C52.2882 6.87583 52.8856 7.84089 52.8856 8.9719C52.8856 10.1179 52.3629 11.0679 51.0784 11.0679Z" fill="white"/>
<path d="M59.7206 13.4052C62.0954 13.4052 63.7234 11.6258 63.7234 9.3187C63.7234 7.01155 62.0954 5.23218 59.7206 5.23218C57.3458 5.23218 55.7178 7.01155 55.7178 9.3187C55.7178 11.6258 57.3458 13.4052 59.7206 13.4052ZM59.7206 11.837C58.466 11.837 57.7789 10.8266 57.7789 9.3187C57.7789 7.81075 58.466 6.78536 59.7206 6.78536C60.9603 6.78536 61.6623 7.81075 61.6623 9.3187C61.6623 10.8266 60.9603 11.837 59.7206 11.837Z" fill="white"/>
<path d="M65.5039 10.2235H74.286V8.45917H65.5039V10.2235Z" fill="white"/>
<path d="M74.9297 17.3788C74.9297 17.0318 75.2083 16.7504 75.5522 16.7504H76.7965C77.1404 16.7504 77.419 17.0318 77.419 17.3788C77.419 17.7257 77.1404 18.0071 76.7965 18.0071H75.5522C75.2083 18.0071 74.9297 17.7257 74.9297 17.3788Z" fill="white"/>
<path fill-rule="evenodd" clip-rule="evenodd" d="M15.2448 0C23.4502 0 30.102 6.71572 30.102 15C30.102 23.2843 23.4502 30 15.2448 30C7.03946 30 0.387695 23.2843 0.387695 15C0.387695 6.71572 7.03946 0 15.2448 0ZM14.7078 1.12244C13.0129 1.36327 11.399 2.73831 10.1462 5.03805C9.78275 5.70512 9.45486 6.4421 9.16908 7.23783C10.8726 6.80563 12.7439 6.55082 14.7078 6.5114V1.12244ZM7.91343 7.5981C8.26874 6.47219 8.70346 5.4363 9.20511 4.51549C9.82614 3.37544 10.5632 2.39096 11.3936 1.63483C6.87788 2.95892 3.31843 6.55259 2.00696 11.1118C2.75588 10.2733 3.73099 9.5292 4.86018 8.9022C5.77222 8.39573 6.79824 7.95683 7.91343 7.5981ZM7.55656 8.86583C7.1285 10.5857 6.87612 12.475 6.83709 14.4578H1.49944C1.73798 12.7465 3.09993 11.1171 5.37777 9.8523C6.03849 9.4854 6.76844 9.15435 7.55656 8.86583ZM7.91135 14.4578C7.9557 12.294 8.2642 10.2626 8.7747 8.46765C10.5525 7.95225 12.5647 7.6407 14.7078 7.59593V9.9381C13.9083 12.0047 12.2776 13.6509 10.2306 14.4578H7.91135ZM6.83709 15.5422H1.49944C1.73798 17.2535 3.09993 18.8828 5.37777 20.1477C6.03849 20.5146 6.76844 20.8456 7.55656 21.1342C7.1285 19.4143 6.87612 17.525 6.83709 15.5422ZM8.7747 21.5324C8.2642 19.7374 7.9557 17.706 7.91135 15.5422H10.2306C12.2776 16.3491 13.9084 17.9953 14.7078 20.0619V22.4041C12.5647 22.3593 10.5525 22.0478 8.7747 21.5324ZM7.91343 22.4019C6.79824 22.0432 5.77222 21.6043 4.86018 21.0978C3.73099 20.4708 2.75588 19.7267 2.00696 18.8882C3.31843 23.4474 6.87788 27.0411 11.3936 28.3652C10.5632 27.609 9.82614 26.6246 9.20511 25.4845C8.70346 24.5637 8.26874 23.5278 7.91343 22.4019ZM14.7078 28.8775C13.0129 28.6367 11.399 27.2617 10.1462 24.962C9.78275 24.2949 9.45486 23.5579 9.16908 22.7622C10.8726 23.1943 12.7439 23.4492 14.7078 23.4886V28.8775ZM19.096 28.3652C19.9265 27.609 20.6635 26.6246 21.2846 25.4845C21.7862 24.5637 22.2209 23.5278 22.5762 22.4019C23.6914 22.0432 24.7174 21.6043 25.6295 21.0978C26.7587 20.4708 27.7338 19.7267 28.4827 18.8882C27.1713 23.4474 23.6118 27.0411 19.096 28.3652ZM21.3206 22.7622C21.0348 23.5579 20.7069 24.2949 20.3435 24.962C19.0908 27.2617 17.4768 28.6367 15.7818 28.8775V23.4886C17.7457 23.4492 19.6171 23.1943 21.3206 22.7622ZM22.9331 21.1342C23.7212 20.8456 24.4512 20.5146 25.1119 20.1477C27.3897 18.8828 28.7517 17.2535 28.9902 15.5422H23.6526C23.6136 17.525 23.3611 19.4143 22.9331 21.1342ZM22.5784 15.5422C22.534 17.706 22.2255 19.7374 21.715 21.5324C19.9372 22.0478 17.9251 22.3593 15.7818 22.4041V20.0636C16.5811 17.9963 18.2122 16.3493 20.2597 15.5422H22.5784ZM23.6526 14.4578H28.9902C28.7517 12.7465 27.3897 11.1171 25.1119 9.8523C24.4512 9.4854 23.7212 9.15435 22.9331 8.86583C23.3611 10.5857 23.6136 12.475 23.6526 14.4578ZM21.715 8.46765C22.2255 10.2626 22.534 12.294 22.5784 14.4578H20.2597C18.2122 13.6507 16.5811 12.0037 15.7818 9.93637V7.59593C17.9251 7.6407 19.9372 7.95225 21.715 8.46765ZM22.5762 7.5981C23.6914 7.95683 24.7174 8.39573 25.6295 8.9022C26.7587 9.5292 27.7338 10.2733 28.4827 11.1118C27.1713 6.55259 23.6118 2.95892 19.096 1.63483C19.9265 2.39096 20.6635 3.37544 21.2846 4.51549C21.7862 5.4363 22.2209 6.47219 22.5762 7.5981ZM15.7818 1.12244C17.4768 1.36327 19.0908 2.73831 20.3435 5.03805C20.7069 5.70513 21.0348 6.4421 21.3206 7.23783C19.6171 6.80563 17.7457 6.55082 15.7818 6.5114V1.12244Z" fill="white"/>
</g>
<defs>
<clipPath id="clip0_180_294">
<rect width="78" height="30" fill="white"/>
</clipPath>
</defs>
</svg>
