<svg width="116" height="30" viewBox="0 0 116 30" fill="none" xmlns="http://www.w3.org/2000/svg">
<path d="M21.4992 12.6564C23.7324 12.6564 24.2348 13.63 24.2348 14.8443C24.2348 16.1314 23.6271 17.0536 21.5085 17.0536C19.4034 17.0536 18.7949 16.185 18.7949 14.8443C18.7949 13.525 19.4582 12.6564 21.4992 12.6564Z" fill="white"/>
<path d="M44.8371 12.6564C47.0703 12.6564 47.5727 13.63 47.5727 14.8443C47.5727 16.1314 46.9642 17.0536 44.8464 17.0536C42.742 17.0536 42.1328 16.185 42.1328 14.8443C42.1328 13.525 42.7961 12.6564 44.8371 12.6564Z" fill="white"/>
<path fill-rule="evenodd" clip-rule="evenodd" d="M1.72705 27.5V2.17645H114.58V27.5H1.72705ZM55.5126 26.0715H113.157V3.60502H55.5126V26.0715ZM21.5098 19.2093C25.4745 19.2093 27.1412 17.4929 27.1412 14.8122C27.1412 12.0879 25.2638 10.4686 21.5098 10.4686C17.8135 10.4686 15.8678 12.2272 15.8678 14.8122C15.8678 17.7293 17.9089 19.2093 21.5098 19.2093ZM7.72577 10.6615V19.0807H15.7276V16.8386H10.6208V10.6615H7.72577ZM36.0967 19.0807L36.0219 18.265C35.0534 18.9587 33.8747 19.2926 32.6878 19.2093C30.9037 19.2093 29.4178 18.6729 28.5844 17.59C28.0347 16.7995 27.7572 15.8505 27.7938 14.8872C27.7625 13.9441 28.0497 13.0181 28.6086 12.2593C29.4519 11.2086 30.9806 10.5115 33.2564 10.5115C35.8746 10.5115 37.4132 11.3157 38.0751 12.6672C38.2171 12.9855 38.3006 13.3269 38.3213 13.675H35.5515C35.4817 13.4635 35.3518 13.277 35.1779 13.1386C34.6262 12.7715 33.9673 12.6017 33.3077 12.6565C32.9208 12.6094 32.5282 12.6452 32.1562 12.7617C31.7841 12.8782 31.4409 13.0727 31.1492 13.3322C30.818 13.7872 30.6625 14.3473 30.7116 14.9086C30.6731 15.4441 30.8161 15.977 31.1172 16.4207C31.4115 16.696 31.7613 16.9044 32.1429 17.0321C32.5246 17.1597 32.929 17.2037 33.329 17.1607C34.1235 17.2256 34.9122 16.9797 35.5302 16.4743C35.6629 16.3077 35.7544 16.1119 35.7971 15.9029H32.8166V14.0936H38.3939V19.0807H36.0967ZM44.8479 19.2093C48.8118 19.2093 50.4792 17.4929 50.4792 14.8122C50.4792 12.0879 48.599 10.4686 44.8479 10.4686C41.1516 10.4686 39.2059 12.2272 39.2059 14.8122C39.2059 17.7293 41.2469 19.2093 44.8479 19.2093Z" fill="white"/>
<path d="M60.3892 19.0486V10.6293H62.453V19.0486H60.3892Z" fill="white"/>
<path d="M73.051 15.5307C72.5279 16.2172 71.6277 16.5307 70.3588 16.5386C70.0912 16.5386 66.5436 16.5279 66.5436 16.5279V19.0486H64.5239V10.6293H70.3595C70.8272 10.5797 71.3003 10.6294 71.7472 10.7754C72.1949 10.9214 72.6062 11.1602 72.9556 11.4764C73.4168 12.0794 73.641 12.8313 73.5862 13.5893C73.6331 14.2787 73.4445 14.9637 73.051 15.5307ZM71.395 12.7857C71.1815 12.4643 70.721 12.2857 69.9418 12.2857H66.5329V14.8486H69.9197C70.7531 14.8486 71.1921 14.6772 71.395 14.3443C71.5152 14.1098 71.5672 13.8457 71.5444 13.5829C71.5622 13.3087 71.511 13.0345 71.395 12.7857Z" fill="white"/>
<path d="M79.5376 19.1772C75.7331 19.1772 74.5688 17.7486 74.5688 16.335H76.7273C76.7273 17.0322 77.6781 17.5579 79.6337 17.5579C81.578 17.5579 82.0911 17.2143 82.0911 16.6564C82.0911 16.0343 81.7068 15.8414 79.9006 15.6379C79.5448 15.6057 78.5762 15.4879 78.2125 15.4343C75.6506 15.1443 74.6642 14.3829 74.6642 13.0207C74.6642 11.5836 76.1075 10.5007 79.238 10.5007C82.6362 10.5007 83.9399 11.8414 83.9399 13.2357H81.805C81.805 12.5279 81.0036 12.12 79.1121 12.12C77.1671 12.12 76.7508 12.3879 76.7508 12.9136C76.7508 13.4607 77.1778 13.6322 79.2416 13.8786C79.712 13.9436 80.7588 14.0614 81.0471 14.0929C83.2276 14.3179 84.2104 15.1114 84.2104 16.5164C84.2068 18.19 82.7109 19.1772 79.5376 19.1772Z" fill="white"/>
<path d="M90.2877 19.1664C87.4995 19.1664 85.6826 18.0614 85.6826 15.7378V10.6293H87.7229V15.7664C87.7229 16.8286 88.589 17.5357 90.3731 17.5357C91.9865 17.5357 92.9486 16.8714 92.9486 15.7664V10.6293H94.9683V15.9286C94.9683 18.0407 93.2796 19.1664 90.2877 19.1664Z" fill="white"/>
<path d="M106.028 19.0486V13.4286L103.409 19.0486H101.422L98.879 13.4286V19.0486H96.9575V10.6293H99.5608L102.446 17.0428L105.395 10.6293H107.957V19.0486H106.028Z" fill="white"/>
</svg>
