<svg width="140" height="30" viewBox="0 0 140 30" fill="none" xmlns="http://www.w3.org/2000/svg">
<g clip-path="url(#clip0_180_307)">
<path fill-rule="evenodd" clip-rule="evenodd" d="M14.8758 3.42525L16.85 0L22.447 3.23775L20.4735 6.66225C20.1269 7.263 20.6457 7.9935 21.3255 7.86225L25.1078 7.131L26.3318 13.4888L22.5496 14.2192C16.4315 15.4012 11.7606 8.83125 14.8758 3.42525Z" fill="white"/>
<path fill-rule="evenodd" clip-rule="evenodd" d="M11.456 26.5748L9.48182 30L3.88406 26.763L5.85829 23.3378C6.20492 22.737 5.6861 22.0065 5.00556 22.1378L1.22406 22.8683L0 16.5113L3.78225 15.7808C9.90032 14.5988 14.5705 21.1688 11.456 26.5748Z" fill="white"/>
<path fill-rule="evenodd" clip-rule="evenodd" d="M11.6264 3.42525L9.65294 0L4.05519 3.23775L6.02941 6.66225C6.3753 7.263 5.85722 7.9935 5.17669 7.86225L1.39444 7.131L0.171875 13.4888L3.95337 14.2192C10.0722 15.4012 14.7431 8.83125 11.6272 3.42525H11.6264Z" fill="white"/>
<path fill-rule="evenodd" clip-rule="evenodd" d="M14.711 26.5748L16.6837 30L22.2815 26.763L20.3072 23.3378C19.9613 22.737 20.4794 22.0065 21.16 22.1378L24.9415 22.8683L26.1655 16.5113L22.3833 15.7808C16.2652 14.5988 11.595 21.1688 14.7095 26.5748H14.711Z" fill="white"/>
<path d="M122.117 22.6147V16.2397C122.117 15.3562 122.32 14.5635 122.726 13.8622C123.146 13.1467 123.741 12.5858 124.511 12.1785C125.282 11.772 126.199 11.5687 127.263 11.5687C127.759 11.5639 128.254 11.6275 128.733 11.7577C129.182 11.8702 129.587 12.0315 129.951 12.2415C130.329 12.438 130.651 12.6765 130.918 12.957H130.96C131.245 12.6725 131.57 12.4314 131.925 12.2415C132.316 12.0264 132.733 11.8637 133.165 11.7577C133.652 11.6284 134.153 11.5649 134.657 11.5687C135.72 11.5687 136.637 11.7713 137.408 12.1785C138.177 12.5858 138.773 13.146 139.193 13.8622C139.613 14.5635 139.823 15.3555 139.823 16.2397V22.6147H136.546V16.3447C136.546 15.9945 136.456 15.6787 136.274 15.3982C136.107 15.1049 135.868 14.8587 135.58 14.6827C135.277 14.4978 134.927 14.4028 134.572 14.409C134.194 14.409 133.851 14.5005 133.543 14.6827C133.255 14.8585 133.017 15.1047 132.85 15.3982C132.68 15.6843 132.593 16.0119 132.598 16.3447V22.6147H129.343V16.3447C129.343 15.9945 129.251 15.6787 129.069 15.3982C128.899 15.1006 128.652 14.8537 128.355 14.6827C128.051 14.4978 127.702 14.4028 127.347 14.409C126.968 14.409 126.626 14.5005 126.318 14.6827C126.03 14.8585 125.791 15.1047 125.625 15.3982C125.455 15.6845 125.368 16.012 125.372 16.3447V22.6147H122.117ZM114.997 22.8675C113.891 22.8675 112.931 22.6575 112.12 22.236C111.321 21.801 110.705 21.219 110.271 20.49C109.837 19.7467 109.62 18.9255 109.62 18.0278V11.8207H112.876V17.9437C112.876 18.3225 112.966 18.6735 113.148 18.996C113.33 19.3042 113.576 19.557 113.883 19.7535C114.205 19.9357 114.57 20.0272 114.976 20.0272C115.368 20.0272 115.718 19.9357 116.026 19.7535C116.348 19.557 116.6 19.3042 116.782 18.996C116.964 18.6735 117.055 18.3225 117.055 17.9437V11.8207H120.311V18.0278C120.311 18.9255 120.1 19.7467 119.68 20.49C119.26 21.219 118.652 21.8017 117.854 22.236C117.069 22.6567 116.117 22.8675 114.997 22.8675ZM99.1332 22.6147V20.0272H104.321C104.461 20.0272 104.587 19.9987 104.7 19.9425C104.811 19.8727 104.902 19.7812 104.972 19.6695C105.041 19.559 105.077 19.4314 105.077 19.3012C105.077 19.1711 105.041 19.0435 104.972 18.933C104.907 18.8248 104.812 18.7373 104.7 18.6802C104.586 18.6098 104.455 18.5734 104.321 18.5752H102.431C101.73 18.5752 101.093 18.4627 100.52 18.2385C99.9749 18.0124 99.5076 17.6322 99.1751 17.1442C98.8532 16.6395 98.6922 15.987 98.6922 15.1875C98.6922 14.5702 98.839 14.0092 99.1332 13.5045C99.4393 13.0013 99.865 12.5818 100.372 12.2835C100.902 11.9757 101.504 11.8159 102.116 11.8207H107.303V14.43H102.62C102.434 14.4263 102.253 14.4942 102.116 14.6197C102.054 14.6799 102.006 14.7519 101.973 14.8315C101.941 14.9111 101.925 14.9965 101.926 15.0825C101.926 15.279 101.99 15.447 102.116 15.5872C102.253 15.7128 102.434 15.7807 102.62 15.777H104.468C105.252 15.777 105.924 15.8962 106.484 16.134C107.059 16.359 107.5 16.7235 107.808 17.229C108.13 17.7337 108.291 18.3855 108.291 19.185C108.291 19.8165 108.13 20.3917 107.808 20.91C107.502 21.4266 107.068 21.8546 106.547 22.152C106.029 22.461 105.441 22.6147 104.783 22.6147H99.1332ZM92.0404 11.5687C92.9507 11.5687 93.7556 11.7157 94.4556 12.0105C95.1432 12.2731 95.7613 12.6906 96.2621 13.2308C96.7726 13.76 97.1662 14.3909 97.4173 15.0825C97.683 15.7837 97.8163 16.5623 97.8163 17.418C97.8163 18.4837 97.5925 19.431 97.144 20.2582C96.7298 21.0511 96.1049 21.7137 95.3382 22.173C94.5679 22.6357 93.6717 22.8675 92.6498 22.8675C92.2156 22.8675 91.8023 22.8112 91.41 22.6995C91.0384 22.5901 90.6848 22.4268 90.3604 22.215C90.0545 22.0071 89.7908 21.7429 89.5833 21.4365H89.5196V27.1815H86.2644V17.4172C86.2644 16.2247 86.5025 15.1935 86.9787 14.3243C87.4402 13.4686 88.1409 12.7665 88.9948 12.3038C89.8633 11.8133 90.8784 11.568 92.0404 11.568V11.5687ZM92.0404 14.388C91.5365 14.388 91.0956 14.514 90.7175 14.7667C90.3529 15.0052 90.0729 15.342 89.8767 15.777C89.6813 16.197 89.5833 16.6747 89.5833 17.2072C89.5833 17.7405 89.6813 18.2175 89.8767 18.6382C90.0729 19.059 90.3529 19.3957 90.7175 19.6485C91.0956 19.887 91.5365 20.0062 92.0404 20.0062C92.5442 20.0062 92.9784 19.8862 93.3423 19.6485C93.7084 19.394 93.999 19.0449 94.183 18.6382C94.3927 18.2175 94.4975 17.7405 94.4975 17.2072C94.4975 16.6747 94.3927 16.1977 94.183 15.777C93.9869 15.342 93.7069 15.0045 93.3423 14.7667C92.9784 14.514 92.5442 14.388 92.0404 14.388ZM81.3173 22.6147V11.8207H84.5942V22.6147H81.3173ZM82.9553 10.6005C82.4373 10.6005 81.9896 10.4115 81.6115 10.0327C81.2334 9.654 81.044 9.20475 81.044 8.68575C81.044 8.16675 81.2334 7.71825 81.6115 7.3395C81.9896 6.9465 82.4373 6.75 82.9553 6.75C83.4734 6.75 83.9219 6.9465 84.2999 7.3395C84.678 7.71825 84.8667 8.16675 84.8667 8.68575C84.8667 9.20475 84.678 9.65325 84.2999 10.0327C83.9219 10.4115 83.4734 10.6005 82.9553 10.6005ZM74.196 22.8675C73.0902 22.8675 72.096 22.6222 71.2133 22.131C70.3474 21.6555 69.6228 20.9586 69.1133 20.1112C68.6095 19.2555 68.3572 18.2947 68.3572 17.2282C68.3572 16.1482 68.6095 15.1875 69.1133 14.346C69.6228 13.4987 70.3474 12.8017 71.2133 12.3262C72.096 11.8207 73.0902 11.5687 74.196 11.5687C75.3025 11.5687 76.2892 11.8207 77.1577 12.3262C78.0205 12.7984 78.7391 13.4965 79.2367 14.346C79.7548 15.1875 80.0138 16.1482 80.0138 17.2282C80.0138 18.2947 79.7548 19.2555 79.2367 20.1112C78.7391 20.9607 78.0205 21.6588 77.1577 22.131C76.2758 22.6222 75.2883 22.8675 74.196 22.8675ZM74.196 20.0272C74.7141 20.0272 75.1625 19.9005 75.5406 19.6485C75.9188 19.396 76.2231 19.0474 76.4225 18.6382C76.6329 18.2175 76.7377 17.7405 76.7377 17.2072C76.7377 16.6882 76.6329 16.2187 76.4225 15.7972C76.223 15.3884 75.9187 15.04 75.5406 14.7877C75.1625 14.535 74.7141 14.409 74.196 14.409C73.6779 14.409 73.2227 14.535 72.8312 14.7877C72.4528 15.0402 72.1482 15.3889 71.9485 15.798C71.7346 16.2367 71.6269 16.7198 71.6341 17.208C71.6341 17.7405 71.7389 18.2175 71.9485 18.6382C72.1483 19.0473 72.4529 19.396 72.8312 19.6485C73.2227 19.9005 73.6779 20.0272 74.196 20.0272ZM57.7771 26.8867V24.0877H63.1532C63.3636 24.0877 63.5388 24.018 63.6788 23.8777C63.747 23.8173 63.8012 23.7426 63.8374 23.6589C63.8736 23.5751 63.891 23.4845 63.8884 23.3932V21.0157H63.8255C63.5596 21.3256 63.2563 21.6012 62.9226 21.8362C62.6142 22.0612 62.2638 22.2292 61.8722 22.3417C61.4555 22.4591 61.0241 22.5156 60.5913 22.5097C59.639 22.5097 58.7848 22.2847 58.0286 21.8362C57.2867 21.3735 56.6982 20.7352 56.264 19.9215C55.8448 19.1085 55.6344 18.1822 55.6344 17.1442C55.6344 16.1205 55.8515 15.1875 56.2857 14.346C56.7334 13.5045 57.3848 12.831 58.239 12.3262C59.0925 11.8207 60.1361 11.5687 61.3684 11.5687C62.5445 11.5687 63.5597 11.814 64.414 12.3052C65.2717 12.7717 65.9731 13.4813 66.4301 14.3453C66.9063 15.2153 67.1443 16.2397 67.1443 17.418V23.73C67.1443 24.6975 66.8576 25.4625 66.2834 26.0235C65.7234 26.5987 64.9463 26.886 63.952 26.886L57.7771 26.8867ZM61.3894 19.7745C61.8932 19.7745 62.3274 19.662 62.692 19.4377C63.0518 19.2037 63.3417 18.8767 63.5313 18.4913C63.7304 18.0855 63.8312 17.6384 63.8255 17.1862C63.8255 16.6815 63.7282 16.2187 63.532 15.798C63.3359 15.3772 63.0559 15.0472 62.6913 14.8088C62.3274 14.556 61.8932 14.43 61.3886 14.43C60.899 14.43 60.4648 14.5492 60.0867 14.7877C59.7228 15.0262 59.4428 15.3487 59.2467 15.7552C59.0513 16.1625 58.9532 16.6177 58.9532 17.1232C58.9532 17.6145 59.0505 18.063 59.2467 18.4703C59.4428 18.8625 59.7228 19.1782 60.0874 19.4167C60.4648 19.6552 60.899 19.7745 61.3894 19.7745ZM49.0169 22.8675C47.9112 22.8675 46.9169 22.6222 46.035 22.131C45.1688 21.6557 44.4439 20.9587 43.9343 20.1112C43.4304 19.2555 43.1781 18.2947 43.1781 17.2282C43.1781 16.1482 43.4304 15.1875 43.9343 14.346C44.4439 13.4985 45.1688 12.8016 46.035 12.3262C46.9169 11.8207 47.9112 11.5687 49.0169 11.5687C50.1235 11.5687 51.1102 11.8207 51.9787 12.3262C52.8414 12.7985 53.56 13.4966 54.0577 14.346C54.5758 15.1875 54.8348 16.1482 54.8348 17.2282C54.8348 18.2947 54.5758 19.2555 54.0577 20.1112C53.56 20.9607 52.8414 21.6587 51.9787 22.131C51.0967 22.6222 50.1092 22.8675 49.0169 22.8675ZM49.0169 20.0272C49.535 20.0272 49.9827 19.9005 50.3615 19.6485C50.7396 19.3959 51.0439 19.0472 51.2435 18.6382C51.4531 18.2175 51.5579 17.7405 51.5579 17.2072C51.5579 16.6882 51.4531 16.2187 51.2435 15.7972C51.0438 15.3885 50.7395 15.0402 50.3615 14.7877C49.9835 14.535 49.535 14.409 49.0169 14.409C48.4989 14.409 48.0437 14.535 47.6521 14.7877C47.2738 15.0402 46.9692 15.3889 46.7695 15.798C46.5556 16.2367 46.4478 16.7198 46.455 17.208C46.455 17.7405 46.5598 18.2175 46.7695 18.6382C46.9692 19.0473 47.2738 19.396 47.6521 19.6485C48.0437 19.9005 48.4989 20.0272 49.0169 20.0272ZM38.5911 22.6147C37.6807 22.6147 36.8826 22.4122 36.1968 22.005C35.5299 21.6176 34.9787 21.0582 34.6007 20.385C34.2226 19.7115 34.0332 18.9675 34.0332 18.1545V7.88625H37.5617V18.4065C37.5617 18.744 37.6814 19.038 37.9188 19.2907C38.1568 19.5427 38.4503 19.6695 38.8007 19.6695H42.6863V22.6147H38.5911Z" fill="white"/>
</g>
<defs>
<clipPath id="clip0_180_307">
<rect width="140" height="30" fill="white"/>
</clipPath>
</defs>
</svg>
