<svg width="65" height="30" viewBox="0 0 65 30" fill="none" xmlns="http://www.w3.org/2000/svg">
<path d="M1.68018 17.9456H3.52157V27.0047H1.68018V17.9456Z" fill="white"/>
<path d="M4.5895 23.9008C4.58829 23.2501 4.77949 22.6136 5.1389 22.072C5.49832 21.5304 6.0098 21.1079 6.60862 20.8581C7.2074 20.6082 7.86663 20.5422 8.50285 20.6684C9.13907 20.7946 9.72368 21.1073 10.1826 21.567C10.6417 22.0267 10.9545 22.6127 11.0814 23.2507C11.2084 23.8888 11.1439 24.5504 10.896 25.1517C10.648 25.7529 10.2279 26.2669 9.68877 26.6286C9.14966 26.9902 8.51572 27.1832 7.86721 27.1832C7.43587 27.1882 7.00798 27.1067 6.60849 26.9436C6.20901 26.7804 5.84599 26.5389 5.54073 26.2332C5.23546 25.9275 4.99408 25.5637 4.83074 25.1632C4.66741 24.7627 4.58539 24.3335 4.5895 23.9008ZM9.29117 23.9008C9.28395 23.6199 9.19432 23.3473 9.03351 23.1173C8.8727 22.8872 8.64786 22.7099 8.38708 22.6074C8.1263 22.5049 7.84121 22.4818 7.5675 22.5411C7.29372 22.6003 7.04347 22.7392 6.84795 22.9404C6.65249 23.1416 6.52048 23.3962 6.46844 23.6723C6.41641 23.9484 6.44668 24.2338 6.55545 24.4927C6.66426 24.7516 6.84671 24.9726 7.08 25.128C7.31335 25.2834 7.58713 25.3664 7.86721 25.3665C8.05877 25.3719 8.24941 25.3374 8.42706 25.2651C8.6047 25.1929 8.76551 25.0845 8.89935 24.9467C9.03312 24.809 9.13705 24.645 9.20446 24.465C9.27193 24.2849 9.30144 24.0928 9.29117 23.9008Z" fill="white"/>
<path d="M18.5475 20.7969V26.6968C18.5475 28.7845 16.9209 29.6652 15.276 29.6652C14.6975 29.7084 14.1184 29.591 13.6019 29.3259C13.0855 29.0609 12.6518 28.6584 12.3482 28.1625L13.9318 27.2449C14.0574 27.499 14.2562 27.7095 14.5025 27.8489C14.7487 27.9883 15.031 28.0504 15.3128 28.027C15.4982 28.058 15.6883 28.0459 15.8683 27.9915C16.0484 27.9372 16.2135 27.8421 16.3511 27.7136C16.4887 27.585 16.595 27.4265 16.6619 27.2502C16.7288 27.0739 16.7544 26.8846 16.7368 26.6968V26.124C16.5203 26.3913 16.2441 26.6036 15.9306 26.7437C15.6171 26.8839 15.275 26.948 14.9322 26.9308C14.0987 26.9308 13.2994 26.5986 12.71 26.0073C12.1207 25.416 11.7896 24.6139 11.7896 23.7776C11.7896 22.9413 12.1207 22.1394 12.71 21.548C13.2994 20.9567 14.0987 20.6245 14.9322 20.6245C15.2749 20.6088 15.6164 20.6735 15.9297 20.8136C16.243 20.9537 16.5193 21.1652 16.7368 21.4312V20.8154L18.5475 20.7969ZM16.7368 23.7776C16.7491 23.4782 16.6717 23.1818 16.5148 22.9267C16.3578 22.6716 16.1284 22.4694 15.8561 22.3462C15.5837 22.223 15.2808 22.1843 14.9864 22.2352C14.6919 22.286 14.4194 22.424 14.2038 22.6315C13.9881 22.839 13.8393 23.1065 13.7763 23.3995C13.7134 23.6925 13.7392 23.9978 13.8506 24.276C13.9619 24.5542 14.1536 24.7925 14.4011 24.9605C14.6485 25.1286 14.9404 25.2185 15.2391 25.2187C15.4342 25.2326 15.6299 25.2053 15.8137 25.1386C15.9976 25.0719 16.1655 24.9673 16.3066 24.8315C16.4476 24.6958 16.5589 24.5318 16.633 24.3503C16.7071 24.1688 16.7424 23.9737 16.7368 23.7776Z" fill="white"/>
<path d="M19.6095 23.9008C19.6083 23.2501 19.7995 22.6136 20.1589 22.072C20.5184 21.5304 21.0298 21.1079 21.6286 20.8581C22.2274 20.6082 22.8866 20.5422 23.5229 20.6684C24.1591 20.7946 24.7437 21.1073 25.2027 21.567C25.6617 22.0267 25.9745 22.6127 26.1015 23.2507C26.2284 23.8888 26.1639 24.5504 25.916 25.1517C25.668 25.7529 25.248 26.2669 24.7088 26.6286C24.1697 26.9902 23.5357 27.1832 22.8872 27.1832C22.4559 27.1882 22.028 27.1067 21.6285 26.9436C21.229 26.7804 20.866 26.5389 20.5607 26.2332C20.2555 25.9275 20.0141 25.5637 19.8507 25.1632C19.6874 24.7627 19.6054 24.3335 19.6095 23.9008ZM24.3112 23.9008C24.304 23.6199 24.2143 23.3473 24.0535 23.1173C23.8927 22.8872 23.6679 22.7099 23.4071 22.6074C23.1464 22.5049 22.8613 22.4818 22.5875 22.5411C22.3137 22.6003 22.0635 22.7392 21.8679 22.9404C21.6725 23.1416 21.5405 23.3962 21.4884 23.6723C21.4364 23.9484 21.4667 24.2338 21.5754 24.4927C21.6843 24.7516 21.8667 24.9726 22.1 25.128C22.3334 25.2834 22.6071 25.3664 22.8872 25.3665C23.0778 25.3701 23.2671 25.3344 23.4433 25.2613C23.6194 25.1883 23.7788 25.0796 23.9112 24.9421C24.0437 24.8046 24.1465 24.6411 24.2132 24.462C24.2799 24.2828 24.3091 24.0917 24.299 23.9008H24.3112Z" fill="white"/>
<path d="M27.0181 19.1341C27.0181 18.9125 27.0836 18.6958 27.2063 18.5114C27.3291 18.3271 27.5036 18.1835 27.7077 18.0986C27.9118 18.0138 28.1364 17.9916 28.3531 18.0348C28.5698 18.0781 28.7688 18.1848 28.9251 18.3416C29.0814 18.4983 29.1877 18.698 29.2308 18.9155C29.274 19.1329 29.2518 19.3583 29.1673 19.5631C29.0827 19.7679 28.9395 19.943 28.7558 20.0661C28.5721 20.1892 28.3562 20.255 28.1352 20.255C27.8394 20.2534 27.5562 20.1348 27.347 19.9249C27.1379 19.7151 27.0197 19.431 27.0181 19.1341ZM27.2083 20.7969H29.0497V27.0047H27.2083V20.7969Z" fill="white"/>
<path d="M37.078 23.9008C37.1003 24.3111 37.0415 24.7219 36.905 25.1093C36.7685 25.4968 36.557 25.8533 36.2825 26.1584C36.0081 26.4635 35.6763 26.7111 35.3061 26.887C34.9359 27.0629 34.5347 27.1636 34.1256 27.1833C33.7822 27.1998 33.4392 27.1406 33.1211 27.0097C32.803 26.8788 32.5173 26.6795 32.2843 26.4258V29.5051H30.4429V20.7969H32.2843V21.382C32.5173 21.1283 32.803 20.929 33.1211 20.7981C33.4392 20.6672 33.7822 20.608 34.1256 20.6245C34.5342 20.6442 34.9349 20.7447 35.3046 20.9202C35.6744 21.0957 36.006 21.3428 36.2803 21.6472C36.5546 21.9516 36.7663 22.3074 36.9032 22.6941C37.0401 23.0809 37.0995 23.491 37.078 23.9008ZM35.2366 23.9008C35.2293 23.6117 35.1377 23.3312 34.973 23.0939C34.8084 22.8566 34.578 22.6729 34.3104 22.5657C34.0428 22.4584 33.7497 22.4322 33.4674 22.4905C33.1852 22.5486 32.9261 22.6887 32.7223 22.8931C32.5185 23.0976 32.379 23.3575 32.321 23.6407C32.263 23.9239 32.2891 24.218 32.3959 24.4865C32.5029 24.755 32.6859 24.9862 32.9224 25.1513C33.159 25.3165 33.4386 25.4085 33.7267 25.4158C33.9277 25.4286 34.1291 25.3981 34.3175 25.3264C34.5058 25.2546 34.6766 25.1432 34.8185 24.9997C34.9604 24.8562 35.07 24.6839 35.14 24.4943C35.21 24.3048 35.2388 24.1024 35.2243 23.9008H35.2366Z" fill="white"/>
<path d="M42.8109 25.1448C42.8109 26.5736 41.5833 27.1832 40.2329 27.1832C39.6935 27.2312 39.1521 27.116 38.6784 26.8526C38.2049 26.5892 37.8206 26.1896 37.5752 25.7052L39.1834 24.7876C39.2486 25.0116 39.3884 25.2065 39.5793 25.3398C39.7702 25.4731 40.0009 25.5369 40.2329 25.5205C40.681 25.5205 40.902 25.3788 40.902 25.1325C40.902 24.4489 37.833 24.8123 37.833 22.6691C37.833 21.3142 38.9746 20.6306 40.2882 20.6306C40.7729 20.6158 41.2527 20.7313 41.6779 20.9653C42.1032 21.1992 42.4583 21.5429 42.7066 21.9608L41.0923 22.8107C41.021 22.6481 40.9041 22.5097 40.7559 22.4124C40.6077 22.3151 40.4346 22.263 40.2575 22.2626C39.9383 22.2626 39.7419 22.3858 39.7419 22.6137C39.7665 23.3218 42.8109 22.8477 42.8109 25.1448Z" fill="white"/>
<path d="M49.5873 20.7969V27.0047H47.7458V26.4258C47.5316 26.6831 47.2598 26.8858 46.9525 27.0174C46.6454 27.1491 46.3114 27.2059 45.9781 27.1833C44.7505 27.1833 43.6641 26.2903 43.6641 24.6091V20.7969H45.5054V24.3381C45.4893 24.489 45.5068 24.6416 45.5567 24.7849C45.6067 24.9282 45.6877 25.0585 45.7941 25.1664C45.9005 25.2744 46.0295 25.3571 46.1717 25.4088C46.3139 25.4605 46.4659 25.4797 46.6164 25.4651C47.2916 25.4651 47.7643 25.071 47.7643 24.1903V20.7969H49.5873Z" fill="white"/>
<path d="M60.2303 23.1987V27.0046H58.3889V23.3588C58.3889 22.743 58.0881 22.3365 57.4989 22.3365C56.9097 22.3365 56.5291 22.7738 56.5291 23.5066V27.0046H54.6877V23.3588C54.6877 22.743 54.3931 22.3365 53.7977 22.3365C53.2024 22.3365 52.8341 22.7738 52.8341 23.5066V27.0046H50.9927V20.7969H52.8341V21.3696C53.0265 21.1167 53.2789 20.916 53.5684 20.7859C53.8578 20.6557 54.1751 20.6002 54.4913 20.6245C54.8089 20.609 55.1251 20.6763 55.409 20.8198C55.693 20.9633 55.9351 21.1782 56.1117 21.4435C56.3171 21.1662 56.5893 20.9455 56.9027 20.8023C57.2162 20.6591 57.5607 20.5979 57.904 20.6245C59.3035 20.6245 60.2303 21.6468 60.2303 23.1987Z" fill="white"/>
<path d="M61.8017 20.76C62.561 20.76 63.1766 20.1423 63.1766 19.3805C63.1766 18.6186 62.561 18.001 61.8017 18.001C61.0424 18.001 60.4268 18.6186 60.4268 19.3805C60.4268 20.1423 61.0424 20.76 61.8017 20.76Z" fill="white"/>
<path d="M22.5188 13.2467C26.0749 13.2467 28.9576 10.3543 28.9576 6.78637C28.9576 3.21848 26.0749 0.326111 22.5188 0.326111C18.9628 0.326111 16.0801 3.21848 16.0801 6.78637C16.0801 10.3543 18.9628 13.2467 22.5188 13.2467Z" fill="white"/>
<path d="M36.9124 13.2467C40.4684 13.2467 43.3511 10.3543 43.3511 6.78637C43.3511 3.21848 40.4684 0.326111 36.9124 0.326111C33.3564 0.326111 30.4736 3.21848 30.4736 6.78637C30.4736 10.3543 33.3564 13.2467 36.9124 13.2467Z" fill="white"/>
<path d="M14.5642 0.326111H1.69287V13.2405H14.5642V0.326111Z" fill="white"/>
</svg>
