<svg width="124" height="30" viewBox="0 0 124 30" fill="none" xmlns="http://www.w3.org/2000/svg">
<g clip-path="url(#clip0_180_336)">
<path d="M37.8271 20.5888H46.5451V17.9546H40.9257V8.03265H37.8271V20.5888Z" fill="white"/>
<path d="M51.7103 18.8327C50.4673 18.8327 49.8196 17.7439 49.8196 16.1107C49.8196 14.4775 50.4673 13.3712 51.7103 13.3712C52.9532 13.3712 53.6184 14.4775 53.6184 16.1107C53.6184 17.7439 52.9532 18.8327 51.7103 18.8327ZM51.7278 20.8697C54.6162 20.8697 56.5069 18.8151 56.5069 16.1107C56.5069 13.4063 54.6162 11.3517 51.7278 11.3517C48.8568 11.3517 46.9312 13.4063 46.9312 16.1107C46.9312 18.8151 48.8568 20.8697 51.7278 20.8697Z" fill="white"/>
<path d="M61.5065 23.6971C62.837 23.6971 64.0099 23.3986 64.7976 22.6961C65.5154 22.0464 65.988 21.0629 65.988 19.7108V11.5976H63.2571V12.5634H63.2221C62.6969 11.8083 61.8917 11.3342 60.7013 11.3342C58.478 11.3342 56.9375 13.1956 56.9375 15.8298C56.9375 18.5869 58.8106 20.0971 60.8238 20.0971C61.9092 20.0971 62.5919 19.6581 63.1171 19.061H63.1871V19.9566C63.1871 21.0454 62.6794 21.6776 61.4715 21.6776C60.5262 21.6776 60.0535 21.2737 59.896 20.7995H57.1301C57.4102 22.6786 59.0382 23.6971 61.5065 23.6971ZM61.489 17.9722C60.4212 17.9722 59.7209 17.0942 59.7209 15.742C59.7209 14.3722 60.4212 13.4942 61.489 13.4942C62.6794 13.4942 63.3096 14.5127 63.3096 15.7244C63.3096 16.9888 62.7319 17.9722 61.489 17.9722Z" fill="white"/>
<path d="M71.6033 18.8327C70.3604 18.8327 69.7127 17.7439 69.7127 16.1107C69.7127 14.4775 70.3604 13.3712 71.6033 13.3712C72.8462 13.3712 73.5115 14.4775 73.5115 16.1107C73.5115 17.7439 72.8462 18.8327 71.6033 18.8327ZM71.6208 20.8697C74.5093 20.8697 76.3999 18.8151 76.3999 16.1107C76.3999 13.4063 74.5093 11.3517 71.6208 11.3517C68.7499 11.3517 66.8242 13.4063 66.8242 16.1107C66.8242 18.8151 68.7499 20.8697 71.6208 20.8697Z" fill="white"/>
<path d="M77.2329 20.5888H80.0864V11.5975H77.2329V20.5888ZM77.2329 10.3507H80.0864V8.03265H77.2329V10.3507Z" fill="white"/>
<path d="M81.3252 23.5566H84.1787V19.6581H84.2137C84.7739 20.4132 85.5966 20.8698 86.752 20.8698C89.0978 20.8698 90.6558 19.0083 90.6558 16.0932C90.6558 13.3888 89.2028 11.3342 86.822 11.3342C85.5966 11.3342 84.7213 11.8786 84.1086 12.6864H84.0561V11.5976H81.3252V23.5566ZM86.0168 18.6571C84.7914 18.6571 84.0911 17.6561 84.0911 16.1986C84.0911 14.741 84.7213 13.6347 85.9642 13.6347C87.1897 13.6347 87.7674 14.6532 87.7674 16.1986C87.7674 17.7264 87.1021 18.6571 86.0168 18.6571Z" fill="white"/>
<path d="M95.3013 20.8698C97.6471 20.8698 99.3802 19.8512 99.3802 17.8844C99.3802 15.5839 97.5246 15.18 95.9491 14.9166C94.8112 14.7059 93.7958 14.6181 93.7958 13.9859C93.7958 13.4239 94.3385 13.1605 95.0388 13.1605C95.8265 13.1605 96.3692 13.4064 96.4742 14.2142H99.1001C98.9601 12.4405 97.5946 11.3342 95.0563 11.3342C92.9381 11.3342 91.1875 12.3176 91.1875 14.2142C91.1875 16.3215 92.8505 16.7429 94.4085 17.0064C95.5989 17.2171 96.6843 17.3049 96.6843 18.1127C96.6843 18.6922 96.1416 19.0083 95.2838 19.0083C94.3385 19.0083 93.7433 18.5693 93.6383 17.6737H90.9424C91.0299 19.6581 92.6755 20.8698 95.3013 20.8698Z" fill="white"/>
<path d="M103.256 20.8522C104.499 20.8522 105.287 20.3605 105.934 19.4824H105.987V20.5888H108.718V11.5975H105.864V16.62C105.864 17.6912 105.269 18.4288 104.289 18.4288C103.379 18.4288 102.941 17.8844 102.941 16.9009V11.5975H100.105V17.498C100.105 19.5 101.19 20.8522 103.256 20.8522Z" fill="white"/>
<path d="M109.959 20.5888H112.812V15.5488C112.812 14.4776 113.338 13.7225 114.23 13.7225C115.088 13.7225 115.491 14.2844 115.491 15.2503V20.5888H118.344V15.5488C118.344 14.4776 118.852 13.7225 119.762 13.7225C120.62 13.7225 121.023 14.2844 121.023 15.2503V20.5888H123.876V14.741C123.876 12.7215 122.861 11.3342 120.83 11.3342C119.675 11.3342 118.712 11.8259 118.012 12.9147H117.977C117.522 11.9488 116.629 11.3342 115.456 11.3342C114.16 11.3342 113.303 11.9488 112.742 12.8795H112.69V11.5976H109.959V20.5888Z" fill="white"/>
<path fill-rule="evenodd" clip-rule="evenodd" d="M15.0873 29.3693C23.1441 29.3693 29.6755 22.8174 29.6755 14.7351C29.6755 6.65295 23.1441 0.101013 15.0873 0.101013C7.03039 0.101013 0.499023 6.65295 0.499023 14.7351C0.499023 22.8174 7.03039 29.3693 15.0873 29.3693ZM19.6383 6.91821C19.8598 6.12885 19.0962 5.66208 18.3988 6.1605L8.66342 13.1178C7.90709 13.6583 8.02606 14.7351 8.84212 14.7351H11.4057V14.7152H16.402L12.331 16.1562L10.5363 22.5521C10.3147 23.3415 11.0783 23.8082 11.7757 23.3098L21.5111 16.3526C22.2675 15.8121 22.1484 14.7351 21.3324 14.7351H17.4448L19.6383 6.91821Z" fill="white"/>
</g>
<defs>
<clipPath id="clip0_180_336">
<rect width="124" height="30" fill="white"/>
</clipPath>
</defs>
</svg>
